# xmcd CD database file
#
# Track frame offsets:
#	150
#	5336
#	22812
#	44525
#	63654
#	82592
#	93397
#	109852
#	113525
#	139699
#	153319
#	171663
#	187785
#	202288
#	205874
#
# Disc length: 2981 seconds
#
# Revision: 0
# Processed by: cddbd v1.5PL3 Copyright (c) Steve Scherf et al.
# Submitted via: CDex 1.51
#
DISCID=c00ba30f
DTITLE=平井 堅 - Ken's Bar
DYEAR=2003
DGENRE=Blues
TTITLE0=Open
TTITLE1=even if -instrumental-
TTITLE2=THE ROSE
TTITLE3=ONE DAY
TTITLE4=LOVIN' YOU
TTITLE5=WHAT A WONDERFUL WORLD
TTITLE6=You've Got A Friend
TTITLE7=Intermission
TTITLE8=大きな古時計
TTITLE9=FAITH
TTITLE10=When You Wish Upon A Star
TTITLE11=ABC
TTITLE12=Don't Know Why
TTITLE13=Close
TTITLE14=見上げてごらん夜の星を
EXTD=YEAR: 2003
EXTT0=
EXTT1=
EXTT2=
EXTT3=
EXTT4=
EXTT5=
EXTT6=
EXTT7=
EXTT8=
EXTT9=
EXTT10=
EXTT11=
EXTT12=
EXTT13=
EXTT14=
PLAYORDER=
